<svg width="24" height="24" viewBox="0 0 24 24" fill="none" xmlns="http://www.w3.org/2000/svg">
<mask id="mask0_217_5915" style="mask-type:alpha" maskUnits="userSpaceOnUse" x="0" y="0" width="24" height="24">
<rect width="24" height="24" fill="#D9D9D9"/>
</mask>
<g mask="url(#mask0_217_5915)">
<path d="M3.18498 12L10.7177 19.5327C10.9164 19.7314 11.0132 19.9653 11.0082 20.2345C11.0031 20.5038 10.9011 20.7378 10.7025 20.9365C10.5036 21.1352 10.2696 21.2345 10.0005 21.2345C9.73131 21.2345 9.49731 21.1352 9.29848 20.9365L1.62748 13.2807C1.44664 13.0999 1.31264 12.8973 1.22548 12.673C1.13831 12.4487 1.09473 12.2243 1.09473 12C1.09473 11.7757 1.13831 11.5513 1.22548 11.327C1.31264 11.1027 1.44664 10.9001 1.62748 10.7192L9.29848 3.04798C9.49731 2.84932 9.73389 2.75257 10.0082 2.75773C10.2826 2.7629 10.5191 2.86482 10.7177 3.06348C10.9164 3.26215 11.0157 3.49615 11.0157 3.76548C11.0157 4.03465 10.9164 4.26857 10.7177 4.46723L3.18498 12Z" fill="#462007"/>
</g>
</svg>
