<svg width="24" height="24" viewBox="0 0 24 24" fill="none" xmlns="http://www.w3.org/2000/svg">
<mask id="mask0_299_8928" style="mask-type:alpha" maskUnits="userSpaceOnUse" x="0" y="0" width="24" height="24">
<rect width="24" height="24" fill="#D9D9D9"/>
</mask>
<g mask="url(#mask0_299_8928)">
<path d="M11.3849 19.5C11.1336 19.5 10.9233 19.4153 10.7541 19.246C10.5848 19.0768 10.5001 18.8666 10.5001 18.6152V12.827L4.90214 5.7155C4.70981 5.459 4.68189 5.19233 4.81839 4.9155C4.95506 4.6385 5.18556 4.5 5.50989 4.5H18.4904C18.8147 4.5 19.0452 4.6385 19.1819 4.9155C19.3184 5.19233 19.2905 5.459 19.0981 5.7155L13.5001 12.827V18.6152C13.5001 18.8666 13.4155 19.0768 13.2461 19.246C13.077 19.4153 12.8667 19.5 12.6154 19.5H11.3849ZM12.0001 12.3L16.9501 6H7.05014L12.0001 12.3Z" fill="#462007"/>
</g>
</svg>
