<svg width="24" height="24" viewBox="0 0 24 24" fill="none" xmlns="http://www.w3.org/2000/svg">
<mask id="mask0_72_1346" style="mask-type:alpha" maskUnits="userSpaceOnUse" x="0" y="0" width="24" height="24">
<rect width="24" height="24" fill="#D9D9D9"/>
</mask>
<g mask="url(#mask0_72_1346)">
<path d="M6.30775 21.5C5.80258 21.5 5.375 21.325 5.025 20.975C4.675 20.625 4.5 20.1974 4.5 19.6923V8.30775C4.5 7.80258 4.675 7.375 5.025 7.025C5.375 6.675 5.80258 6.5 6.30775 6.5H8.25V6.25C8.25 5.21417 8.616 4.33017 9.348 3.598C10.0802 2.866 10.9642 2.5 12 2.5C13.0358 2.5 13.9198 2.866 14.652 3.598C15.384 4.33017 15.75 5.21417 15.75 6.25V6.5H17.6923C18.1974 6.5 18.625 6.675 18.975 7.025C19.325 7.375 19.5 7.80258 19.5 8.30775V19.6923C19.5 20.1974 19.325 20.625 18.975 20.975C18.625 21.325 18.1974 21.5 17.6923 21.5H6.30775ZM6.30775 20H17.6923C17.7693 20 17.8398 19.9679 17.9038 19.9038C17.9679 19.8398 18 19.7693 18 19.6923V8.30775C18 8.23075 17.9679 8.16025 17.9038 8.09625C17.8398 8.03208 17.7693 8 17.6923 8H15.75V10.25C15.75 10.4628 15.6782 10.641 15.5345 10.7845C15.391 10.9282 15.2128 11 15 11C14.7872 11 14.609 10.9282 14.4655 10.7845C14.3218 10.641 14.25 10.4628 14.25 10.25V8H9.75V10.25C9.75 10.4628 9.67817 10.641 9.5345 10.7845C9.391 10.9282 9.21283 11 9 11C8.78717 11 8.609 10.9282 8.4655 10.7845C8.32183 10.641 8.25 10.4628 8.25 10.25V8H6.30775C6.23075 8 6.16025 8.03208 6.09625 8.09625C6.03208 8.16025 6 8.23075 6 8.30775V19.6923C6 19.7693 6.03208 19.8398 6.09625 19.9038C6.16025 19.9679 6.23075 20 6.30775 20ZM9.75 6.5H14.25V6.25C14.25 5.62317 14.0318 5.09142 13.5953 4.65475C13.1588 4.21825 12.627 4 12 4C11.373 4 10.8413 4.21825 10.4048 4.65475C9.96825 5.09142 9.75 5.62317 9.75 6.25V6.5Z" fill="#462007"/>
</g>
</svg>
